HIERARCHY
ROOT Hips
{
	OFFSET	0.000000	0.000000	0.000000
	CHANNELS 6 Xposition Yposition Zposition Zrotation Xrotation Yrotation
	JOINT LeftUpLeg
	{
		OFFSET	12.830505	-7.049846	-1.643436
		CHANNELS 3 Zrotation Xrotation Yrotation
		JOINT LeftLeg
		{
			OFFSET	0.620834	-39.957502	-1.919341
			CHANNELS 3 Zrotation Xrotation Yrotation
			JOINT LeftFoot
			{
				OFFSET	-0.413890	-44.704761	-3.870325
				CHANNELS 3 Zrotation Xrotation Yrotation
				JOINT LeftFootHeel
				{
					OFFSET	0.164738	-8.918194	-6.555130
					CHANNELS 3 Zrotation Xrotation Yrotation
					End Site
					{
						OFFSET	-0.604053	0.000000	21.044330
					}
				}
			}
		}
	}
	JOINT RightUpLeg
	{
		OFFSET	-12.830505	-7.049846	-1.643436
		CHANNELS 3 Zrotation Xrotation Yrotation
		JOINT RightLeg
		{
			OFFSET	-0.620834	-39.957502	-1.919341
			CHANNELS 3 Zrotation Xrotation Yrotation
			JOINT RightFoot
			{
				OFFSET	0.413890	-44.704761	-3.870325
				CHANNELS 3 Zrotation Xrotation Yrotation
				JOINT RightFootHeel
				{
					OFFSET	-0.164738	-8.918194	-6.555130
					CHANNELS 3 Zrotation Xrotation Yrotation
					End Site
					{
						OFFSET	0.604053	0.000000	21.044330
					}
				}
			}
		}
	}
	JOINT Spine
	{
		OFFSET	0.000000	12.498171	1.820647
		CHANNELS 3 Zrotation Xrotation Yrotation
		JOINT Spine1
		{
			OFFSET	0.000000	7.620000	0.000000
			CHANNELS 3 Zrotation Xrotation Yrotation
			JOINT LeftShoulder
			{
				OFFSET	9.167800	29.136339	-5.551221
				CHANNELS 3 Zrotation Xrotation Yrotation
				JOINT LeftArm
				{
					OFFSET	12.133453	-3.880866	1.461963
					CHANNELS 3 Zrotation Xrotation Yrotation
					JOINT LeftForeArm
					{
						OFFSET	2.507115	-31.664910	-1.069404
						CHANNELS 3 Zrotation Xrotation Yrotation
						JOINT LeftHand
						{
							OFFSET	4.116172	-24.512624	5.009439
							CHANNELS 3 Zrotation Xrotation Yrotation
							End Site
							{
								OFFSET	-0.213136	-10.931856	2.182134
							}
						}
					}
				}
			}
			JOINT RightShoulder
			{
				OFFSET	-9.167800	29.136339	-5.551221
				CHANNELS 3 Zrotation Xrotation Yrotation
				JOINT RightArm
				{
					OFFSET	-12.133453	-3.880866	1.461963
					CHANNELS 3 Zrotation Xrotation Yrotation
					JOINT RightForeArm
					{
						OFFSET	-2.507115	-31.664910	-1.069404
						CHANNELS 3 Zrotation Xrotation Yrotation
						JOINT RightHand
						{
							OFFSET	-4.116172	-24.512624	5.009439
							CHANNELS 3 Zrotation Xrotation Yrotation
							End Site
							{
								OFFSET	0.213136	-10.931856	2.182134
							}
						}
					}
				}
			}
			JOINT Neck
			{
				OFFSET	0.000000	32.926275	-3.635654
				CHANNELS 3 Zrotation Xrotation Yrotation
				JOINT Head
				{
					OFFSET	0.000000	12.481178	4.646143
					CHANNELS 3 Zrotation Xrotation Yrotation
					End Site
					{
						OFFSET	0.000000	17.715205	-2.222063
					}
				}
			}
		}
	}
}
MOTION
Frames:     19
Frame Time: 0.016667
0.000000	99.767213	0.000000	6.889227	5.743438	-42.840858	10.963194	-31.797171	15.105966	1.491266	30.820147	2.835770	-6.036963	-4.982988	-1.245083	0.	0.	0.	-15.807340	-23.568054	-14.238208	4.381338	28.811363	0.595584	4.456563	-9.789270	5.394449	0.	0.	0.	-0.000000	0.000000	0.000001	4.229729	22.941065	-0.859464	5.136006	-8.657902	5.276324	-3.183917	-15.127488	-7.370616	57.773293	-128.255737	63.930515	-7.513634	-5.268860	2.015394	-2.431774	-6.672550	-2.942796	-10.962232	-30.873899	4.937799	-77.711998	-125.347809	-82.299454	-1.170688	-9.951376	16.699554	-4.179143	-8.344933	15.506555	-11.001012	-9.067733	12.253038	
-0.000349	99.764180	0.000436	6.886775	5.743277	-42.866165	10.981112	-31.788120	15.147314	1.496470	30.818327	2.816776	-6.036175	-4.984232	-1.239596	0.	0.	0.	-15.798441	-23.582222	-14.247530	4.360744	28.825308	0.611677	4.463230	-9.789192	5.419350	0.	0.	0.	-0.000001	-0.000000	-0.000001	4.215864	22.951088	-0.872001	5.165577	-8.669687	5.278550	-3.192929	-15.147553	-7.361867	57.803120	-128.240479	63.926861	-7.522847	-5.274506	1.988165	-2.415574	-6.687131	-2.941738	-10.937819	-30.876202	4.944085	-77.703323	-125.267593	-82.307861	-1.216844	-9.894203	16.626348	-4.156851	-8.338865	15.519925	-11.022743	-9.087684	12.266006	
-0.006337	99.766186	0.000044	6.886775	5.743277	-42.866165	10.980330	-31.787527	15.131904	1.487595	30.818630	2.828818	-6.035378	-4.985499	-1.234022	0.	0.	0.	-15.792195	-23.577124	-14.278821	4.337646	28.821533	0.650682	4.463230	-9.789192	5.419350	0.	0.	0.	-0.000001	-0.000000	-0.000001	4.215864	22.951088	-0.872001	5.167393	-8.677592	5.234161	-3.184906	-15.166217	-7.345136	57.820557	-128.206680	63.914486	-7.528692	-5.255139	1.928276	-2.419996	-6.692394	-2.993186	-10.902669	-30.875998	4.982759	-77.753555	-125.221359	-82.375710	-1.277802	-9.890982	16.603540	-4.156851	-8.338865	15.519925	-11.039261	-9.086735	12.276314	
-0.005729	99.768211	-0.008718	6.861125	5.727465	-42.867020	10.985200	-31.761538	15.103090	1.474000	30.823071	2.848435	-6.033922	-4.987789	-1.223967	0.	0.	0.	-15.773170	-23.550074	-14.271667	4.329136	28.815903	0.623918	4.468206	-9.781795	5.454267	0.	0.	0.	0.000000	0.000000	-0.000001	4.217318	22.986574	-0.908301	5.180738	-8.683915	5.254910	-3.183269	-15.176220	-7.332147	57.832150	-128.192932	63.917770	-7.538000	-5.248418	1.906406	-2.413813	-6.703836	-2.979441	-10.883128	-30.872663	4.994381	-77.799919	-125.212341	-82.429817	-1.302906	-9.906265	16.622519	-4.145485	-8.348022	15.559803	-11.050415	-9.079645	12.281892	
-0.004256	99.767058	-0.007917	6.840570	5.714574	-42.863018	10.986023	-31.742834	15.076249	1.464550	30.827923	2.861866	-6.032724	-4.989679	-1.215674	0.	0.	0.	-15.764998	-23.527063	-14.266789	4.325228	28.819761	0.607347	4.474813	-9.784236	5.473249	0.	0.	0.	-0.000000	0.000000	-0.000002	4.220438	23.014725	-0.941890	5.194898	-8.688890	5.273785	-3.185815	-15.179996	-7.318710	57.842789	-128.188049	63.912552	-7.552638	-5.252393	1.908478	-2.410188	-6.713743	-2.973874	-10.864008	-30.868702	5.007771	-77.862053	-125.222984	-82.493713	-1.380695	-9.907885	16.653904	-4.136570	-8.355204	15.591123	-11.056567	-9.064757	12.282613	
-0.003052	99.766622	-0.008085	6.820677	5.702375	-42.863693	10.989964	-31.723597	15.057924	1.455477	30.833769	2.858981	-6.029594	-4.994595	-1.194066	0.	0.	0.	-15.755029	-23.505295	-14.262230	4.321882	28.820093	0.609300	4.476274	-9.784781	5.477442	0.	0.	0.	-0.000001	-0.000001	0.000001	4.225280	23.038292	-0.946871	5.218664	-8.695283	5.261744	-3.200748	-15.173300	-7.295568	57.845509	-128.187393	63.901249	-7.699599	-5.271585	1.922329	-2.433442	-6.729528	-3.022885	-10.824481	-30.825279	5.044423	-77.838547	-125.229950	-82.472778	-1.362019	-9.883017	16.691866	-4.134748	-8.356677	15.597534	-11.060115	-9.015627	12.274291	
-0.005850	99.766205	-0.005040	6.792636	5.686072	-42.881767	11.008327	-31.689251	15.075052	1.453611	30.836714	2.834965	-6.025996	-5.000220	-1.169456	0.	0.	0.	-15.733268	-23.476236	-14.257066	4.308671	28.817255	0.639175	4.476274	-9.784781	5.477442	0.	0.	0.	0.000000	-0.000000	0.000000	4.226756	23.070673	-0.926742	5.218664	-8.695283	5.261744	-3.200748	-15.173300	-7.295568	57.870296	-128.216019	63.933243	-7.732650	-5.275163	1.917945	-2.447635	-6.726417	-3.036868	-10.833136	-30.770098	5.036497	-77.829018	-125.286301	-82.468132	-1.376565	-9.875401	16.715981	-4.125339	-8.347558	15.583727	-11.073758	-9.017991	12.281625	
-0.007480	99.766758	-0.003764	6.792636	5.686072	-42.881767	11.008327	-31.689251	15.075052	1.453323	30.837147	2.831405	-6.025452	-5.001054	-1.165805	0.	0.	0.	-15.733253	-23.473328	-14.272316	4.300891	28.815588	0.656779	4.476274	-9.784781	5.477442	0.	0.	0.	0.000000	-0.000000	0.000000	4.226756	23.070673	-0.926742	5.220267	-8.696508	5.255811	-3.201906	-15.184716	-7.306052	57.861423	-128.222916	63.925423	-7.731136	-5.312934	1.925637	-2.447635	-6.726417	-3.036868	-10.843266	-30.749775	5.029180	-77.874290	-125.305344	-82.515038	-1.389175	-9.910482	16.731915	-4.116303	-8.341763	15.578689	-11.095381	-9.017927	12.270010	
-0.004089	99.766448	-0.005875	6.761875	5.666836	-42.879177	11.013825	-31.654884	15.067739	1.453323	30.837147	2.831405	-6.025452	-5.001054	-1.165805	0.	0.	0.	-15.719614	-23.439169	-14.264977	4.299131	28.815199	0.660766	4.476274	-9.784781	5.477442	0.	0.	0.	0.000000	-0.000000	0.000002	4.237002	23.105539	-0.929052	5.231145	-8.701053	5.237423	-3.207890	-15.193399	-7.304619	57.819054	-128.215591	63.889030	-7.756052	-5.310644	1.934412	-2.447635	-6.726417	-3.036868	-10.859763	-30.716656	5.017239	-77.848274	-125.314301	-82.489723	-1.375889	-9.889978	16.740566	-4.116303	-8.341763	15.578689	-11.099854	-9.019051	12.263927	
-0.003134	99.766399	-0.006518	6.755077	5.662526	-42.877865	11.014548	-31.647388	15.065256	1.453323	30.837147	2.831405	-6.025452	-5.001054	-1.165805	0.	0.	0.	-15.716945	-23.431522	-14.263357	4.299131	28.815199	0.660766	4.476274	-9.784781	5.477442	0.	0.	0.	-0.000000	0.000001	-0.000002	4.239542	23.113232	-0.930372	5.238321	-8.703006	5.231324	-3.212471	-15.193857	-7.304889	57.793224	-128.215912	63.865849	-7.754237	-5.294815	1.938738	-2.447635	-6.726417	-3.036868	-10.863347	-30.709442	5.014653	-77.851479	-125.315781	-82.493057	-1.369600	-9.880742	16.744850	-4.116303	-8.341763	15.578689	-11.099854	-9.019051	12.263927	
-0.001436	99.766312	-0.007664	6.743033	5.654871	-42.875526	11.015807	-31.634096	15.060841	1.453323	30.837147	2.831405	-6.025452	-5.001054	-1.165805	0.	0.	0.	-15.712234	-23.417963	-14.260502	4.299131	28.815199	0.660766	4.476274	-9.784781	5.477442	0.	0.	0.	-0.000000	0.000001	-0.000002	4.244042	23.126875	-0.932727	5.250149	-8.706233	5.221274	-3.219978	-15.189989	-7.295727	57.744633	-128.230103	63.822483	-7.775187	-5.261652	1.934100	-2.447635	-6.726417	-3.036868	-10.863347	-30.709442	5.014653	-77.851479	-125.315781	-82.493057	-1.361811	-9.857584	16.746883	-4.116303	-8.341763	15.578689	-11.099854	-9.019051	12.263927	
-0.001051	99.766273	-0.007919	6.740307	5.653137	-42.875004	11.016093	-31.631084	15.059845	1.453323	30.837147	2.831405	-6.025452	-5.001054	-1.165805	0.	0.	0.	-15.711168	-23.414892	-14.259850	4.299131	28.815199	0.660766	4.476274	-9.784781	5.477442	0.	0.	0.	-0.000000	0.000001	-0.000001	4.245058	23.129963	-0.933255	5.257295	-8.708185	5.215202	-3.224856	-15.187809	-7.288178	57.676876	-128.255478	63.762878	-7.843964	-5.214911	1.863783	-2.464816	-6.728123	-3.057251	-10.842995	-30.695042	5.030723	-77.801636	-125.336899	-82.444916	-1.376570	-9.842006	16.744263	-4.116303	-8.341763	15.578689	-11.099854	-9.019051	12.263927	
-0.001051	99.766273	-0.007919	6.740307	5.653137	-42.875004	11.016093	-31.631084	15.059845	1.453323	30.837147	2.831405	-6.025452	-5.001054	-1.165805	0.	0.	0.	-15.711168	-23.414892	-14.259850	4.299131	28.815199	0.660766	4.476274	-9.784781	5.477442	0.	0.	0.	-0.000000	0.000001	-0.000001	4.245058	23.129963	-0.933255	5.257295	-8.708185	5.215202	-3.224856	-15.187809	-7.288178	57.633060	-128.271912	63.724354	-7.840522	-5.187470	1.843988	-2.470831	-6.726803	-3.063183	-10.843057	-30.678854	5.029961	-77.654037	-125.416397	-82.303734	-1.452185	-9.763848	16.723484	-4.116303	-8.341763	15.578689	-11.099854	-9.019051	12.263927	
-0.001051	99.766273	-0.007919	6.740307	5.653137	-42.875004	11.016093	-31.631084	15.059845	1.453323	30.837147	2.831405	-6.025452	-5.001054	-1.165805	0.	0.	0.	-15.711168	-23.414892	-14.259850	4.299131	28.815199	0.660766	4.476274	-9.784781	5.477442	0.	0.	0.	-0.000000	0.000001	-0.000001	4.245058	23.129963	-0.933255	5.257295	-8.708185	5.215202	-3.224856	-15.187809	-7.288178	57.614559	-128.278870	63.708084	-7.889181	-5.169014	1.842013	-2.470831	-6.726803	-3.063183	-10.851874	-30.663862	5.033895	-77.533096	-125.437965	-82.185265	-1.437358	-9.731172	16.726046	-4.116303	-8.341763	15.578689	-11.099854	-9.019051	12.263927	
-0.001051	99.766273	-0.007919	6.740307	5.653137	-42.875004	11.016093	-31.631084	15.059845	1.453323	30.837147	2.831405	-6.025452	-5.001054	-1.165805	0.	0.	0.	-15.711168	-23.414892	-14.259850	4.299131	28.815199	0.660766	4.476274	-9.784781	5.477442	0.	0.	0.	-0.000000	0.000001	-0.000001	4.245058	23.129963	-0.933255	5.257295	-8.708185	5.215202	-3.224856	-15.187809	-7.288178	57.606396	-128.281937	63.700893	-8.016188	-5.149984	1.830346	-2.470831	-6.726803	-3.063183	-10.855691	-30.660208	5.046188	-77.507172	-125.425644	-82.160011	-1.443105	-9.744624	16.721581	-4.115069	-8.342428	15.582033	-11.101315	-9.017492	12.260974	
-0.001051	99.766273	-0.007919	6.740307	5.653137	-42.875004	11.016093	-31.631084	15.059845	1.453323	30.837147	2.831405	-6.025452	-5.001054	-1.165805	0.	0.	0.	-15.711168	-23.414892	-14.259850	4.299131	28.815199	0.660766	4.476274	-9.784781	5.477442	0.	0.	0.	-0.000000	0.000001	-0.000001	4.245058	23.129963	-0.933255	5.257295	-8.708185	5.215202	-3.224856	-15.187809	-7.288178	57.598850	-128.284790	63.694252	-8.015572	-5.144679	1.831823	-2.470831	-6.726803	-3.063183	-10.858104	-30.659531	5.059938	-77.482079	-125.419243	-82.134453	-1.474743	-9.779414	16.745991	-4.109820	-8.345235	15.596230	-11.107531	-9.010881	12.248425	
-0.001051	99.766273	-0.007919	6.740307	5.653137	-42.875004	11.016093	-31.631084	15.059845	1.453323	30.837147	2.831405	-6.025452	-5.001054	-1.165805	0.	0.	0.	-15.711168	-23.414892	-14.259850	4.299131	28.815199	0.660766	4.476274	-9.784781	5.477442	0.	0.	0.	-0.000000	0.000001	-0.000001	4.245058	23.129963	-0.933255	5.257295	-8.708185	5.215202	-3.224856	-15.187809	-7.288178	57.570000	-128.295654	63.668892	-8.013258	-5.124424	1.837445	-2.470831	-6.726803	-3.063183	-10.860355	-30.658909	5.072725	-77.446831	-125.407394	-82.099693	-1.487189	-9.792387	16.760242	-4.103698	-8.348511	15.612790	-11.110498	-9.002094	12.239606	
-0.001051	99.766273	-0.007919	6.740307	5.653137	-42.875004	11.016093	-31.631084	15.059845	1.453323	30.837147	2.831405	-6.025452	-5.001054	-1.165805	0.	0.	0.	-15.711168	-23.414892	-14.259850	4.299131	28.815199	0.660766	4.476274	-9.784781	5.477442	0.	0.	0.	-0.000000	0.000001	-0.000001	4.245058	23.129963	-0.933255	5.257295	-8.708185	5.215202	-3.224856	-15.187809	-7.288178	57.545513	-128.304886	63.647350	-8.011326	-5.109020	1.826161	-2.470831	-6.726803	-3.063183	-10.855920	-30.668745	5.079314	-77.426735	-125.402985	-82.079262	-1.480997	-9.790189	16.757740	-4.096471	-8.352374	15.632336	-11.112588	-8.991363	12.231118	
-0.001051	99.766273	-0.007919	6.740307	5.653137	-42.875004	11.016093	-31.631084	15.059845	1.453323	30.837147	2.831405	-6.025452	-5.001054	-1.165805	0.	0.	0.	-15.711168	-23.414892	-14.259850	4.299131	28.815199	0.660766	4.476274	-9.784781	5.477442	0.	0.	0.	-0.000000	0.000001	-0.000001	4.245058	23.129963	-0.933255	5.257295	-8.708185	5.215202	-3.224856	-15.187809	-7.288178	57.524593	-128.312866	63.625637	-8.013820	-5.103158	1.751317	-2.470831	-6.726803	-3.063183	-10.848937	-30.682756	5.084301	-77.415588	-125.400429	-82.067474	-1.504115	-9.769712	16.748346	-4.106875	-8.359319	15.639330	-11.102003	-8.985885	12.223433	
